<svg xmlns="http://www.w3.org/2000/svg" viewBox="0 0 400 140" fill="none">
  <rect width="400" height="140" rx="10" fill="#1a2332"/>
  <rect x="16" y="100" width="28" height="24" rx="2" fill="#334155"/>
  <rect x="52" y="78" width="28" height="46" rx="2" fill="#475569"/>
  <rect x="88" y="58" width="28" height="66" rx="2" fill="#64748b"/>
  <rect x="124" y="72" width="28" height="52" rx="2" fill="#475569"/>
  <rect x="160" y="42" width="28" height="82" rx="2" fill="#94a3b8"/>
  <rect x="196" y="64" width="28" height="60" rx="2" fill="#64748b"/>
  <rect x="232" y="36" width="28" height="88" rx="2" fill="#a5b4fc"/>
  <rect x="268" y="52" width="28" height="72" rx="2" fill="#818cf8"/>
  <rect x="304" y="28" width="28" height="96" rx="2" fill="#6366f1"/>
  <rect x="340" y="48" width="28" height="76" rx="2" fill="#818cf8"/>
  <path d="M16 36 L120 52 L200 24 L280 44 L384 18" stroke="#6ee7b7" stroke-width="2.5" stroke-linecap="round" stroke-linejoin="round"/>
  <circle cx="200" cy="24" r="4" fill="#34d399"/>
</svg>
